{"title":"One.More.Time.2015.WEBRip.480p.x264.AAC-VYTO [P2PDL]","uid":14256011,"size":373604986,"categoryP":"video","categoryS":"movies","magnet":"?xt=urn:btih:52d2ddbd1692efd1de1129a1c8255e0b40910baf&amp;dn=One.More.Time.2015.WEBRip.480p.x264.AAC-VYTO+%5BP2PDL%5D&amp;tr=udp%3A%2F%2Ftracker.leechers-paradise.org%3A6969&amp;tr=udp%3A%2F%2Fzer0day.ch%3A1337&amp;tr=udp%3A%2F%2Fopen.demonii.com%3A1337&amp;tr=udp%3A%2F%2Ftracker.coppersurfer.tk%3A6969&amp;tr=udp%3A%2F%2Fexodus.desync.com%3A6969","seeders":2,"leechers":1,"uploader":"VYTOP2PDL","files":7,"time":1460186396,"description":"____    ____ ____    ____ .___________.  ______   \r\n     /   /      /   / |           | /  __    \r\n    /   /      /   /  `---|  |----`|  |  |  | \r\n        /     _    _/       |  |     |  |  |  | \r\n       /        |  |         |  |     |  `--'  | \r\n    __/         |__|         |__|      ______/  \r\n                                                  \r\nPresenting Small Encodes with quality for years!\r\n                                                                                                   \r\n                                                                                                   \r\n\r\n\r\nOne.More.Time.2015.WEBRip.480p.x264.AAC-VYTO\r\n\r\n\r\nGenre: Comedy, Drama, Music  \nhttp://www.imdb.com/title/tt3662066/\r\n\r\n\r\nFormat                                   : MPEG-4\r\nFile size                                : 351 MiB\r\nDuration                                 : 1h 36mn\r\nOverall bit rate                         : 506 Kbps\r\n\r\nVideo\r\nFormat                                   : AVC\r\nBit rate                                 : 463 Kbps\r\nWidth                                    : 720 pixels\r\nHeight                                   : 304 pixels\r\nDisplay aspect ratio                     : 2.35:1\r\nFrame rate mode                          : Constant\r\nFrame rate                               : 23.976 fps\r\nBit depth                                : 8 bits\r\nStream size                              : 321 MiB (91%)\r\nWriting library                          : x264\r\n\r\nAudio\r\nFormat                                   : AAC\r\nBit rate mode                            : Variable\r\nBit rate                                 : 40.0 Kbps\r\nChannel(s)                               : 2 channels\r\nChannel positions                        : Front: L R\r\nSampling rate                            : 48.0 KHz\r\nFrame rate                               : 23.438\r\nStream size                              : 27.7 MiB (8%)\r\nLanguage                                 : English\r\n\r\nSubtitle                                 : Yes (English)\r\n\r\nScreen Shots: (Click link to view)\r\n \nhttp://ititli.com/XUN \nhttp://ititli.com/XUP \nhttp://ititli.com/XUf \nhttp://ititli.com/XUu \nhttp://ititli.com/XUv \nhttp://ititli.com/XUR \nhttp://ititli.com/XUy \nhttp://ititli.com/XU3 \nhttp://ititli.com/XUE\r\n\r\n----------------------------------------------------------------------------------------------------\r\n\r\n\r\nEncoder Notes: Looking For Early Access To Anything You Can Provide WEBDL, DVDScr, DVDR, BluRay,\r\nDirect Audio, Music Releases and Seedboxes. If You Got anything to offer please contact us.\r\n\r\nSupport us by donating BC - 1FgwdzPsd1y25Gea8wP1qni35uGCtmkRCD\r\n\r\nFind us and join us!","torrent":{"xt":"urn:btih:52d2ddbd1692efd1de1129a1c8255e0b40910baf","amp;dn":"One.More.Time.2015.WEBRip.480p.x264.AAC-VYTO+%5BP2PDL%5D","amp;tr":["udp%3A%2F%2Ftracker.leechers-paradise.org%3A6969","udp%3A%2F%2Fzer0day.ch%3A1337","udp%3A%2F%2Fopen.demonii.com%3A1337","udp%3A%2F%2Ftracker.coppersurfer.tk%3A6969","udp%3A%2F%2Fexodus.desync.com%3A6969"],"infoHash":"52d2ddbd1692efd1de1129a1c8255e0b40910baf","infoHashBuffer":{"type":"Buffer","data":[82,210,221,189,22,146,239,209,222,17,41,161,200,37,94,11,64,145,11,175]},"announce":[],"urlList":[]}}